<mxfile host="app.diagrams.net" modified="2023-11-08T04:00:55.212Z" agent="Mozilla/5.0 (Macintosh; Intel Mac OS X 10_15_7) AppleWebKit/537.36 (KHTML, like Gecko) Chrome/119.0.0.0 Safari/537.36" version="22.0.8" etag="QVUxtjzQzkPEfPT_koh2" type="github">
  <diagram name="PÃ¡gina-1" id="QCgqJy8aZ9ezrLvFy5GA">
    <mxGraphModel>
      <root>
        <mxCell id="0" />
        <mxCell id="1" parent="0" />
      </root>
    </mxGraphModel>
  </diagram>
</mxfile>
